HIERARCHY
ROOT Hips
{
	OFFSET -0.001795 -0.223333 0.028219
	CHANNELS 6 Xposition Yposition Zposition Zrotation Yrotation Xrotation 
	JOINT LeftUpLeg
	{
		OFFSET 0.069520 -0.091406 -0.006815
		CHANNELS 3 Zrotation Yrotation Xrotation
		JOINT LeftLeg
		{
			OFFSET 0.034277 -0.375199 -0.004496
			CHANNELS 3 Zrotation Yrotation Xrotation
			JOINT LeftFoot
			{
				OFFSET -0.013596 -0.397961 -0.043693
				CHANNELS 3 Zrotation Yrotation Xrotation
				JOINT LeftToe
				{
					OFFSET 0.026358 -0.055791 0.119288
					CHANNELS 3 Zrotation Yrotation Xrotation
					End Site
					{
						OFFSET 0.000000 0.000000 0.000000
					}
				}
			}
		}
	}
	JOINT RightUpLeg
	{
		OFFSET -0.067670 -0.090522 -0.004320
		CHANNELS 3 Zrotation Yrotation Xrotation
		JOINT RightLeg
		{
			OFFSET -0.038290 -0.382569 -0.008850
			CHANNELS 3 Zrotation Yrotation Xrotation
			JOINT RightFoot
			{
				OFFSET 0.015774 -0.398415 -0.042312
				CHANNELS 3 Zrotation Yrotation Xrotation
				JOINT RightToe
				{
					OFFSET -0.025372 -0.048144 0.123348
					CHANNELS 3 Zrotation Yrotation Xrotation
					End Site
					{
						OFFSET 0.000000 0.000000 0.000000
					}
				}
			}
		}
	}
	JOINT Spine
	{
		OFFSET -0.002533 0.108963 -0.026696
		CHANNELS 3 Zrotation Yrotation Xrotation
		JOINT Spine1
		{
			OFFSET 0.005487 0.135180 0.001092
			CHANNELS 3 Zrotation Yrotation Xrotation
			JOINT Spine2
			{
				OFFSET 0.001457 0.052922 0.025425
				CHANNELS 3 Zrotation Yrotation Xrotation
				JOINT Neck
				{
					OFFSET -0.002778 0.213870 -0.042857
					CHANNELS 3 Zrotation Yrotation Xrotation
					JOINT Head
					{
						OFFSET 0.005152 0.064970 0.051349
						CHANNELS 3 Zrotation Yrotation Xrotation
						End Site
						{
							OFFSET 0.000000 0.000000 0.000000
						}
					}
				}
				JOINT LeftShoulder
				{
					OFFSET 0.078845 0.121749 -0.034090
					CHANNELS 3 Zrotation Yrotation Xrotation
					JOINT LeftArm
					{
						OFFSET 0.090977 0.030469 -0.008868
						CHANNELS 3 Zrotation Yrotation Xrotation
						JOINT LeftForeArm
						{
							OFFSET 0.259612 -0.012772 -0.027456
							CHANNELS 3 Zrotation Yrotation Xrotation
							JOINT LeftHand
							{
								OFFSET 0.249234 0.008986 -0.001171
								CHANNELS 3 Zrotation Yrotation Xrotation
								End Site
								{
									OFFSET 0.000000 0.000000 0.000000
								}
							}
						}
					}
				}
				JOINT RightShoulder
				{
					OFFSET -0.081759 0.118833 -0.038615
					CHANNELS 3 Zrotation Yrotation Xrotation
					JOINT RightArm
					{
						OFFSET -0.096012 0.032551 -0.009143
						CHANNELS 3 Zrotation Yrotation Xrotation
						JOINT RightForeArm
						{
							OFFSET -0.253742 -0.013329 -0.021401
							CHANNELS 3 Zrotation Yrotation Xrotation
							JOINT RightHand
							{
								OFFSET -0.255298 0.007772 -0.005559
								CHANNELS 3 Zrotation Yrotation Xrotation
								End Site
								{
									OFFSET 0.000000 0.000000 0.000000
								}
							}
						}
					}
				}
			}
		}
	}
}
MOTION
Frames: 10
Frame Time: 0.050000
0.000000 0.950015 0.000000 -0.528584 13.621612 -0.398942 0.941891 0.285253 5.083853 -2.585452 0.224429 -1.917591 1.626888 8.013693 10.270031 0.000000 0.000000 0.000000 -1.587677 1.250353 -19.772153 6.195685 -2.069464 21.580609 -5.879871 -14.470125 6.906020 0.000000 0.000000 0.000000 -3.280018 -0.391770 13.947651 5.771771 -0.726342 -21.065929 -2.907740 -8.827438 25.878748 -1.302263 2.004936 -22.269659 0.000000 0.000000 0.000000 -24.261428 -6.897536 2.747209 -44.290997 -16.281458 -1.639884 -20.353622 -42.494891 10.384432 0.000000 0.000000 0.000000 14.160993 11.716346 5.054242 51.479020 5.895324 -4.797676 19.845025 48.943241 11.494799 0.000000 0.000000 0.000000 
0.000388 0.947537 0.017595 -0.276791 13.325758 1.094542 0.548088 0.368946 5.892785 -2.007948 0.214424 -4.068905 1.768174 8.169749 10.204686 0.000000 0.000000 0.000000 -1.348684 1.374846 -21.574237 6.762940 -2.063707 19.694447 -7.023226 -16.646705 10.120625 0.000000 0.000000 0.000000 -3.291744 -0.316946 12.808150 6.424572 -0.824060 -22.301035 -3.813589 -9.744058 26.604592 -1.188132 1.910190 -25.812611 0.000000 0.000000 0.000000 -22.449572 -7.346376 3.349699 -45.246359 -19.266055 -0.649370 -21.848979 -45.601768 12.129176 0.000000 0.000000 0.000000 14.618700 10.885913 4.475634 51.069033 5.642907 -4.883737 23.889716 48.707573 13.138246 0.000000 0.000000 0.000000 
0.000226 0.945484 0.039111 -0.533265 13.106305 1.343608 0.877277 0.369996 6.430322 -1.554573 0.183837 -3.135351 2.107731 8.460689 9.631779 0.000000 0.000000 0.000000 -0.311291 1.564162 -21.030484 5.943437 -1.643040 17.866116 -7.230817 -16.782731 14.916019 0.000000 0.000000 0.000000 -2.296277 -0.405389 12.432200 6.570510 -0.816285 -22.959268 -4.222107 -9.604881 26.758512 -1.562180 2.119228 -25.355788 0.000000 0.000000 0.000000 -22.702932 -8.398209 3.986116 -45.677777 -22.378024 0.538384 -24.322086 -46.296681 13.531563 0.000000 0.000000 0.000000 13.866657 9.176499 3.614390 52.789770 4.085035 -5.671751 26.519264 50.232207 14.996585 0.000000 0.000000 0.000000 
-0.000880 0.944047 0.064239 -0.618841 13.010075 1.291115 0.844337 0.436187 7.615072 -0.531780 0.110403 -2.356727 2.271219 8.700596 9.652125 0.000000 0.000000 0.000000 0.339984 1.642868 -20.160060 5.872717 -1.640230 18.184533 -7.435478 -17.060676 16.986775 0.000000 0.000000 0.000000 -1.759349 -0.419165 11.593694 6.625189 -0.831969 -22.971236 -4.421117 -11.577253 27.185827 -2.400452 2.281698 -25.716513 0.000000 0.000000 0.000000 -23.426254 -8.295286 4.617597 -46.154271 -23.266630 0.726275 -29.121208 -48.308083 16.934867 0.000000 0.000000 0.000000 13.269841 9.055325 3.153217 52.197704 3.774786 -5.742522 29.335700 52.434711 16.773912 0.000000 0.000000 0.000000 
-0.003005 0.944021 0.092597 -0.668319 12.525056 1.520613 1.238946 0.433767 8.286581 -0.532749 0.054304 -0.358984 2.705125 9.269107 9.456506 0.000000 0.000000 0.000000 1.291182 1.723167 -18.622073 5.489050 -1.448237 17.446062 -7.971560 -18.034009 16.989367 0.000000 0.000000 0.000000 -0.843513 -0.486434 11.145243 6.724686 -0.879167 -22.825711 -4.793693 -12.198859 26.514699 -2.556335 2.199404 -24.634226 0.000000 0.000000 0.000000 -23.976321 -8.729950 5.209590 -45.529762 -24.315171 1.031610 -32.716042 -49.884762 19.593870 0.000000 0.000000 0.000000 14.479834 8.226975 2.518227 51.610804 2.545587 -6.069123 30.960144 54.467760 18.151073 0.000000 0.000000 0.000000 
-0.006230 0.945617 0.122391 -0.340107 10.890822 1.621558 1.456317 0.361287 6.737586 -1.581992 -0.046645 6.042151 3.845077 11.313962 10.653469 0.000000 0.000000 0.000000 1.800709 1.688698 -16.640909 5.485045 -1.377918 17.886804 -7.066723 -16.895363 13.618700 0.000000 0.000000 0.000000 -0.971491 -0.399614 10.114465 7.773212 -1.312161 -21.318424 -4.908129 -13.105403 25.008574 -3.785471 2.639903 -24.562312 0.000000 0.000000 0.000000 -24.295360 -7.379926 5.010373 -46.275671 -23.680207 0.840791 -40.983485 -50.821776 24.968357 0.000000 0.000000 0.000000 14.100748 9.156912 2.507316 50.856881 2.140630 -5.910484 33.050052 55.341078 18.965386 0.000000 0.000000 0.000000 
-0.010340 0.948143 0.151614 -0.022018 8.468555 1.801272 2.626721 0.043473 2.169252 -4.564753 0.205545 17.049305 4.931223 13.353381 12.974726 0.000000 0.000000 0.000000 2.853287 1.710159 -15.022003 4.216203 -0.882667 18.562521 -5.754297 -14.786979 11.365185 0.000000 0.000000 0.000000 -1.176900 -0.294909 8.693282 8.409098 -1.665690 -19.944663 -4.379260 -11.998393 23.776828 -4.942492 3.294324 -23.654444 0.000000 0.000000 0.000000 -24.980771 -6.714532 4.766513 -45.671825 -22.111733 0.207086 -49.382449 -51.448277 30.313749 0.000000 0.000000 0.000000 13.470162 9.113954 2.395195 49.709255 1.795808 -5.798951 35.722741 56.059993 20.491068 0.000000 0.000000 0.000000 
-0.014494 0.951097 0.179603 0.076631 6.725593 1.147176 4.473861 -0.312192 -3.659448 -8.406245 1.320359 30.041760 6.115641 15.538068 16.919085 0.000000 0.000000 0.000000 3.710662 1.441722 -11.682753 3.717567 -0.611867 17.488607 -5.127855 -13.707223 9.805720 0.000000 0.000000 0.000000 -1.132575 -0.301279 8.940578 9.061265 -1.833393 -20.602090 -4.583450 -11.356080 23.987861 -5.372245 3.482440 -24.669046 0.000000 0.000000 0.000000 -25.829289 -5.799935 4.469320 -44.914467 -20.971143 -0.428562 -55.312266 -52.373503 34.855219 0.000000 0.000000 0.000000 12.102967 9.711790 2.664153 48.569051 1.955323 -5.638493 41.899346 57.999195 24.765745 0.000000 0.000000 0.000000 
-0.017816 0.953783 0.206865 0.572175 4.342437 0.117932 5.330434 -0.560202 -9.589046 -10.989348 2.969299 39.195867 7.699492 17.642257 18.619674 0.000000 0.000000 0.000000 4.351667 0.974719 -7.638021 2.412527 -0.132344 15.849455 -4.319355 -12.169755 8.296334 0.000000 0.000000 0.000000 -1.447608 -0.302566 10.083677 8.173446 -1.494304 -22.146858 -4.015157 -9.034657 25.518939 -3.153324 2.290019 -24.225511 0.000000 0.000000 0.000000 -25.487594 -5.976685 4.345628 -43.903037 -20.177847 -0.838178 -62.237672 -53.564186 40.171463 0.000000 0.000000 0.000000 12.102611 8.998428 2.517020 46.480300 2.596506 -5.341937 46.235686 59.566216 28.525568 0.000000 0.000000 0.000000 
-0.020135 0.958047 0.234778 1.293022 1.461408 0.017501 4.518030 -0.853881 -14.682315 -10.815563 3.589284 40.549517 9.189775 19.249703 12.626305 0.000000 0.000000 0.000000 3.838638 0.550472 -4.721461 1.536415 0.158354 13.695997 -2.715328 -9.307914 8.965855 0.000000 0.000000 0.000000 -2.302216 -0.184780 9.623489 8.259480 -1.620568 -21.610094 -3.601836 -7.080529 25.168134 -2.518803 1.943668 -23.203499 0.000000 0.000000 0.000000 -25.932304 -5.592462 4.094065 -42.899894 -18.317488 -1.521083 -69.983162 -54.666358 46.537289 0.000000 0.000000 0.000000 11.422577 9.281199 2.685568 45.188420 3.170679 -4.974640 55.364642 61.776240 35.877196 0.000000 0.000000 0.000000 
